<?xml version="1.0" standalone="no"?>
<!DOCTYPE svg PUBLIC "-//W3C//DTD SVG 1.1//EN" "http://www.w3.org/Graphics/SVG/1.1/DTD/svg11.dtd" >
<svg xmlns="http://www.w3.org/2000/svg">
<metadata>
This is a custom SVG webfont generated by Font Squirrel.
Copyright   :  2001 House IndustriesBrand Design Co Inc All Rights Reserved
Designer    : Christian Schwartz
Foundry URL : httpwwwhouseindcom
</metadata>
<defs>
<font id="NeutraDisplayBold" horiz-adv-x="434" >
<font-face units-per-em="2048" ascent="1597" descent="-451" />
<missing-glyph horiz-adv-x="372" />
<glyph unicode=" "  horiz-adv-x="372" />
<glyph unicode="&#x09;" horiz-adv-x="372" />
<glyph unicode="&#xa0;" horiz-adv-x="372" />
<glyph unicode="!" horiz-adv-x="471" d="M92 131.5q0 61.5 43 102t100.5 40.5t100.5 -40.5t43 -102t-43 -102.5t-100.5 -41t-100.5 41t-43 102.5zM119 1393h233l-30 -959h-172z" />
<glyph unicode="&#x22;" horiz-adv-x="669" d="M66 1393h225l-25 -414h-176zM379 1393h225l-24 -414h-177z" />
<glyph unicode="#" horiz-adv-x="966" d="M43 401v168h164l41 158h-123v168h166l47 190h176l-49 -190h160l47 190h176l-49 -190h125v-168h-168l-39 -158h131l-6 -168h-168l-45 -178h-176l45 178h-158l-45 -178h-176l45 178h-121zM383 569h158l41 158h-160z" />
<glyph unicode="$" horiz-adv-x="927" d="M35 213l162 106q78 -131 200 -155v317q-170 59 -237.5 134t-67.5 198q0 119 80 196.5t225 90.5v174h150v-180q170 -29 262 -164l-147 -109q-53 74 -115 94v-274q166 -53 245.5 -133t79.5 -205q0 -141 -82.5 -222t-242.5 -95v-224h-150v224q-244 29 -362 227zM291 821 q0 -41 21.5 -70.5t84.5 -58.5v234q-106 -16 -106 -105zM547 162q127 23 127 131q0 51 -26.5 80.5t-100.5 56.5v-268z" />
<glyph unicode="%" horiz-adv-x="1540" d="M39 799q0 129 92 216t217 87t217 -87t92 -216t-92 -216t-217 -87t-217 87t-92 216zM225 798.5q0 -57.5 36 -93t87 -35.5t87 35.5t36 93t-36 93.5t-87 36t-87 -36t-36 -93.5zM348 0l633 1085h211l-633 -1085h-211zM883 285q0 129 92 216t217 87t217 -87t92 -216t-92 -216 t-217 -87t-217 87t-92 216zM1069 284.5q0 -57.5 36 -93t87 -35.5t87 35.5t36 93t-36 93.5t-87 36t-87 -36t-36 -93.5z" />
<glyph unicode="&#x26;" horiz-adv-x="1343" d="M66 393q0 147 82.5 242.5t254.5 193.5q-106 135 -106 279q0 127 89 215t239 88q147 0 232 -82t85 -213q0 -92 -61.5 -168.5t-190.5 -152.5l266 -342q49 123 50 301h200q0 -276 -114 -473l219 -281h-262l-93 119q-162 -137 -387 -137q-233 0 -368 113.5t-135 297.5z M293 393q0 -102 72.5 -161.5t205.5 -59.5q158 0 267 98l-330 424q-117 -66 -166 -135.5t-49 -165.5zM508 1108q0 -78 70 -168l8 -10q80 47 114.5 89t34.5 97q0 47 -28.5 79t-81.5 32q-57 0 -87 -34t-30 -85z" />
<glyph unicode="'" horiz-adv-x="356" d="M66 1393h225l-25 -414h-176z" />
<glyph unicode="(" horiz-adv-x="626" d="M94 596q0 512 365 877l127 -105q-271 -323 -271 -774q0 -450 271 -770l-127 -105q-365 365 -365 877z" />
<glyph unicode=")" horiz-adv-x="626" d="M41 -176q270 322 270 772.5t-270 771.5l127 105q365 -365 365 -877t-365 -877z" />
<glyph unicode="*" horiz-adv-x="770" d="M104 1049l166 67l-166 68l82 141l138 -111l-23 179h168l-25 -179l140 111l82 -141l-168 -68l168 -67l-82 -142l-138 107l23 -174h-168l23 174l-138 -107z" />
<glyph unicode="+" horiz-adv-x="739" d="M74 438v185h200v213h191v-213h201v-185h-201v-213h-191v213h-200z" />
<glyph unicode="," d="M74 131q0 61 43 102t100 41t100 -40.5t43 -102.5q0 -51 -53 -139l-112 -189h-113l72 199q-80 39 -80 129z" />
<glyph unicode="-" horiz-adv-x="512" d="M68 338v186h376v-186h-376z" />
<glyph unicode="." d="M74 131.5q0 61.5 43 102t100 40.5t100 -40.5t43 -102t-43 -102.5t-100 -41t-100 41t-43 102.5z" />
<glyph unicode="/" horiz-adv-x="851" d="M-2 -262l588 1716h211l-588 -1716h-211z" />
<glyph unicode="0" horiz-adv-x="1261" d="M63 542.5q0 235.5 168 397.5t399.5 162t399.5 -162t168 -397.5t-168 -398t-399.5 -162.5t-399.5 162.5t-168 398zM285 543q0 -166 97 -269.5t248.5 -103.5t249 103.5t97.5 269.5t-96.5 268t-250 102t-249.5 -102t-96 -268z" />
<glyph unicode="1" horiz-adv-x="602" d="M59 905v180h383v-1085h-213v905h-170z" />
<glyph unicode="2" horiz-adv-x="905" d="M4 10l387 422q84 90 112.5 124t61.5 94.5t33 115.5q0 68 -39 107.5t-113 39.5q-72 0 -124 -47t-74 -127l-187 72q43 137 147.5 214t240.5 77q172 0 269 -91t97 -241q0 -98 -57.5 -190.5t-182.5 -227.5l-159 -172h420v-180h-832v10z" />
<glyph unicode="3" horiz-adv-x="954" d="M33 250l180 92q80 -176 254 -176q98 0 154.5 53t56.5 154q0 96 -65.5 147t-163.5 51q-90 0 -168 -24l-17 31l266 327h-411v180h762v-10l-291 -362q129 -12 218 -105.5t89 -238.5q0 -170 -110.5 -278.5t-319.5 -108.5q-162 0 -274.5 80.5t-159.5 187.5z" />
<glyph unicode="4" horiz-adv-x="995" d="M47 176v143l739 801h13v-774h141v-170h-141v-176h-207v176h-545zM307 346h285v309z" />
<glyph unicode="5" horiz-adv-x="917" d="M35 219l178 92q74 -145 229 -145q94 0 146.5 51t52.5 141q0 184 -229 185q-147 0 -256 -78l-11 6v614h639v-180h-456v-196q53 16 141 16q170 0 280.5 -104.5t110.5 -266.5q0 -166 -108.5 -269t-309.5 -103q-145 0 -253.5 70.5t-153.5 166.5z" />
<glyph unicode="6" horiz-adv-x="956" d="M63 360q0 162 150 357l283 368h233l-283 -364q31 10 76 10q158 0 264.5 -103.5t106.5 -262.5q0 -174 -120 -278.5t-296 -104.5t-295 102t-119 276zM279 365q0 -86 54 -141.5t144 -55.5t142.5 55.5t52.5 141.5t-55.5 143t-141.5 57q-96 0 -146 -55t-50 -145z" />
<glyph unicode="7" horiz-adv-x="927" d="M59 905v180h824v-10l-508 -1075h-225l430 905h-521z" />
<glyph unicode="8" horiz-adv-x="929" d="M61 332q0 205 211 293q-116 69 -116 200q0 113 88 195t231 82t231.5 -82t88.5 -193q0 -135 -119 -202q213 -88 213 -293q0 -152 -116 -251t-298 -99t-298 99t-116 251zM281 352q0 -82 53 -134t141 -52t141.5 52t53.5 134t-53.5 133.5t-141.5 51.5t-141 -51.5t-53 -133.5z M365 815q0 -49 30.5 -81t79.5 -32t80 32t31 81t-30 80t-81 31t-80.5 -31t-29.5 -80z" />
<glyph unicode="9" horiz-adv-x="956" d="M63 719q0 174 120 278.5t296 104.5t295 -102.5t119 -276.5q0 -139 -150 -356l-254 -367h-233l256 365q-29 -12 -68 -13q-162 0 -271.5 102.5t-109.5 264.5zM283 719q0 -86 54 -143.5t144 -57.5q94 0 144.5 55.5t50.5 145.5q0 86 -53.5 141t-143.5 55t-143 -55t-53 -141z " />
<glyph unicode=":" horiz-adv-x="454" d="M84 131.5q0 61.5 43 102t100.5 40.5t100.5 -40.5t43 -102t-43 -102.5t-100.5 -41t-100.5 41t-43 102.5zM84 544.5q0 61.5 43 102.5t100.5 41t100.5 -41t43 -102.5t-43 -102.5t-100.5 -41t-100.5 41t-43 102.5z" />
<glyph unicode=";" horiz-adv-x="454" d="M84 131q0 61 43 102t100.5 41t100.5 -40.5t43 -102.5q0 -51 -54 -139l-112 -189h-113l72 199q-80 39 -80 129zM84 544.5q0 61.5 43 102.5t100.5 41t100.5 -41t43 -102.5t-43 -102.5t-100.5 -41t-100.5 41t-43 102.5z" />
<glyph unicode="&#x37e;" horiz-adv-x="454" d="M84 131q0 61 43 102t100.5 41t100.5 -40.5t43 -102.5q0 -51 -54 -139l-112 -189h-113l72 199q-80 39 -80 129zM84 544.5q0 61.5 43 102.5t100.5 41t100.5 -41t43 -102.5t-43 -102.5t-100.5 -41t-100.5 41t-43 102.5z" />
<glyph unicode="&#x3c;" horiz-adv-x="663" d="M53 496v8l539 309v-186l-225 -129l225 -129v-187z" />
<glyph unicode="=" horiz-adv-x="739" d="M74 295v184h592v-184h-592zM74 571v185h592v-185h-592z" />
<glyph unicode="&#x3e;" horiz-adv-x="663" d="M72 182v187l225 129l-225 129v186l538 -313v-8z" />
<glyph unicode="?" horiz-adv-x="927" d="M33 1163q55 109 158.5 178.5t246.5 69.5q195 0 310.5 -113.5t115.5 -281.5q0 -162 -87 -264.5t-257 -130.5v-197h-201v369h74q127 0 188.5 63.5t61.5 159.5q0 86 -55.5 146.5t-147.5 60.5q-84 0 -138 -40t-101 -118zM274 131.5q0 61.5 43 102t100.5 40.5t100.5 -40.5 t43 -102t-43 -102.5t-100.5 -41t-100.5 41t-43 102.5z" />
<glyph unicode="@" horiz-adv-x="1583" d="M51 344q0 315 223.5 522t530.5 207q317 0 521 -189.5t204 -484.5q0 -209 -86 -315.5t-230 -106.5q-178 0 -241 127q-75 -122 -239 -122h-3q-131 0 -223 99t-92 249q0 152 92 252t223 100t193 -92v74h206v-416q0 -111 89 -111q55 0 93 65.5t38 192.5q0 246 -147.5 379 t-403.5 133q-246 0 -398.5 -156.5t-152.5 -406.5q0 -252 157.5 -407.5t421.5 -155.5q170 0 287 59l82 -145q-137 -80 -362 -80q-340 0 -561.5 204t-221.5 525zM633 330q0 -80 37.5 -125t107.5 -45q72 0 110 45t38 125q0 82 -38 128t-110 46q-70 0 -107.5 -46t-37.5 -128z " />
<glyph unicode="A" horiz-adv-x="1320" d="M43 0l610 1421h13l612 -1421h-231l-80 195h-623l-80 -195h-221zM426 389h459l-58 137l-112 277l-58 137z" />
<glyph unicode="B" horiz-adv-x="1216" d="M152 0v1393h493q201 0 304.5 -99.5t103.5 -257.5q0 -180 -168 -264q125 -37 195.5 -128t70.5 -224q0 -186 -120 -303t-349 -117h-530zM369 188h301q258 0 258 240q0 113 -65.5 177.5t-203.5 64.5h-290v-482zM369 846h264q109 0 156 47t47 137q0 84 -46.5 129t-156.5 45 h-264v-358z" />
<glyph unicode="C" horiz-adv-x="1454" d="M84 696.5q0 307.5 205 511t506 203.5q365 0 557 -270l-168 -119q-141 190 -396 190q-207 0 -342 -147t-135 -369q0 -225 137.5 -370.5t348.5 -145.5q260 0 417 203l170 -117q-109 -145 -252 -214.5t-344 -69.5q-299 0 -501.5 203.5t-202.5 511z" />
<glyph unicode="D" horiz-adv-x="1361" d="M152 0v1393h393q338 0 535.5 -191.5t197.5 -505t-197.5 -505t-535.5 -191.5h-393zM371 195h161q260 0 389.5 135t129.5 366.5t-129 366.5t-390 135h-161v-1003z" />
<glyph unicode="E" horiz-adv-x="1171" d="M152 0v1393h886v-195h-667v-577h592v-191h-592v-235h696v-195h-915z" />
<glyph unicode="F" horiz-adv-x="1105" d="M152 0v1393h868v-195h-649v-577h592v-195h-592v-426h-219z" />
<glyph unicode="G" horiz-adv-x="1480" d="M84 696q0 307 207 511t508 204q332 0 528 -221l-151 -143q-74 80 -159 122.5t-224 42.5q-211 0 -346.5 -146t-135.5 -370q0 -225 142.5 -370.5t375.5 -145.5q207 0 338 88v158h-372v195h575v-457q-222 -182 -541 -182q-322 0 -533.5 202.5t-211.5 511.5z" />
<glyph unicode="H" horiz-adv-x="1409" d="M152 0v1393h219v-772h667v772h219v-1393h-219v426h-667v-426h-219z" />
<glyph unicode="I" horiz-adv-x="534" d="M158 0v1393h219v-1393h-219z" />
<glyph unicode="J" horiz-adv-x="972" d="M31 219l180 111q43 -76 89 -113t126 -37q182 0 182 215v998h221v-1002q0 -201 -108.5 -305t-286.5 -104q-281 0 -403 237z" />
<glyph unicode="K" horiz-adv-x="1261" d="M152 0v1393h219v-691l542 691h248l-493 -625l567 -768h-266l-445 602l-153 -188v-414h-219z" />
<glyph unicode="L" horiz-adv-x="1054" d="M152 0v1393h219v-1198h614v-195h-833z" />
<glyph unicode="M" horiz-adv-x="1675" d="M152 0v1421h10l680 -784l671 784h11v-1421h-207v903l-475 -567h-11l-473 567v-903h-206z" />
<glyph unicode="N" horiz-adv-x="1415" d="M152 0v1413h16l893 -936v916h205v-1413h-17l-893 935v-915h-204z" />
<glyph unicode="O" horiz-adv-x="1605" d="M84 696.5q0 307.5 208 511t511 203.5t511 -203.5t208 -511t-208 -511t-511 -203.5t-511 203.5t-208 511zM311 696.5q0 -223.5 138.5 -370t353.5 -146.5t353 146.5t138 370t-138 369.5t-353 146t-353.5 -146t-138.5 -369.5z" />
<glyph unicode="P" horiz-adv-x="1181" d="M152 0v1393h356q283 0 438.5 -143.5t155.5 -389.5q0 -244 -157 -387t-437 -143h-137v-330h-219zM371 524h129q377 0 377 336q0 338 -377 338h-129v-674z" />
<glyph unicode="Q" horiz-adv-x="1605" d="M84 696q0 305 208 509t511 204t511 -204t208 -509q0 -276 -174.5 -472.5t-440.5 -233.5v-244h-209v244q-266 37 -440 233.5t-174 472.5zM311 696q0 -197 106.5 -337t280.5 -175v224h209v-224q174 35 280.5 175.5t106.5 336.5q0 223 -138 368.5t-353 145.5t-353.5 -145 t-138.5 -369z" />
<glyph unicode="R" horiz-adv-x="1200" d="M152 0v1393h356q283 0 438.5 -143.5t155.5 -389.5q0 -336 -279 -465l283 -395h-260l-238 338q-47 -6 -100 -6h-137v-332h-219zM371 520h129q377 0 377 340q0 338 -377 338h-129v-678z" />
<glyph unicode="S" horiz-adv-x="1087" d="M45 274l184 93q98 -188 316 -189q111 0 178.5 49t67.5 133q0 47 -15.5 82t-51.5 64t-65.5 44t-89.5 42l-96 43q-170 76 -257 169t-87 245q0 160 107.5 261t279.5 101q266 0 397 -219l-165 -109q-80 135 -228 136q-84 0 -131 -44.5t-47 -117.5q0 -78 48 -122t171 -99 l96 -43q180 -80 265.5 -171.5t85.5 -254.5q0 -186 -127 -285.5t-334 -99.5q-172 0 -300 77.5t-202 214.5z" />
<glyph unicode="T" horiz-adv-x="1144" d="M49 1198v195h1047v-195h-414v-1198h-219v1198h-414z" />
<glyph unicode="U" horiz-adv-x="1349" d="M143 492v901h219v-889q0 -324 314 -324q311 0 311 324v889h219v-901q0 -246 -147 -378t-383 -132q-238 0 -385.5 132t-147.5 378z" />
<glyph unicode="V" horiz-adv-x="1320" d="M43 1393h231l398 -936l385 936h221l-602 -1413h-12z" />
<glyph unicode="W" horiz-adv-x="1925" d="M41 1393h231l299 -889l394 917h12l395 -917l293 889h217l-487 -1411h-13l-411 970l-422 -970h-10z" />
<glyph unicode="X" horiz-adv-x="1312" d="M55 0l477 756l-401 637h248l278 -441l279 441h231q-393 -623 -395 -623l488 -770h-248l-363 573l-362 -573h-232z" />
<glyph unicode="Y" horiz-adv-x="1339" d="M43 1393h242l395 -727l389 727h229l-512 -949v-444h-219v442z" />
<glyph unicode="Z" horiz-adv-x="1224" d="M59 0v12l736 1186h-623v195h975v-13l-735 -1185h712v-195h-1065z" />
<glyph unicode="[" horiz-adv-x="628" d="M152 -262v1716h411v-178h-201v-1360h201v-178h-411z" />
<glyph unicode="\" horiz-adv-x="851" d="M55 1454h211l588 -1716h-211z" />
<glyph unicode="]" horiz-adv-x="628" d="M66 -84h200v1360h-200v178h411v-1716h-411v178z" />
<glyph unicode="^" horiz-adv-x="595" d="M80 428v195h436v-195h-436z" />
<glyph unicode="_" horiz-adv-x="552" d="M-4 -76h561v-186h-561v186z" />
<glyph unicode="`" horiz-adv-x="1024" d="M262 1102h232l102 -311h-160z" />
<glyph unicode="a" horiz-adv-x="778" d="M41 215q0 98 77 151.5t197 53.5h183q-2 127 -129 127q-102 0 -168 -76l-125 115q117 133 305 133q152 0 236.5 -79t84.5 -230v-410h-204v63q-69 -81 -194 -81h-3q-115 0 -187.5 58t-72.5 175zM244 213q0 -68 94 -68q68 0 114 32t46 75v29h-172q-82 0 -82 -68z" />
<glyph unicode="b" horiz-adv-x="890" d="M86 0v1454h205v-833q61 98 217 98q137 0 233.5 -105.5t96.5 -263t-96.5 -263t-233.5 -105.5q-156 0 -217 98v-80h-205zM287 350q0 -86 45 -137t122.5 -51t125 51t47.5 137t-47.5 137.5t-125 51.5t-122.5 -51.5t-45 -137.5z" />
<glyph unicode="c" horiz-adv-x="772" d="M53 350q0 160 105.5 264.5t263.5 104.5q186 0 293 -123l-135 -125q-61 70 -152 70q-76 0 -120 -54.5t-44 -136.5t45 -136t123 -54q90 0 160 73l135 -122q-113 -129 -301 -129q-160 0 -266.5 104t-106.5 264z" />
<glyph unicode="d" horiz-adv-x="890" d="M53 350.5q0 157.5 96.5 263t233.5 105.5q156 0 217 -98v833h205v-1454h-205v80q-61 -98 -217 -98q-137 0 -233.5 105.5t-96.5 263zM264 350q0 -86 47 -137t125 -51t123 51t45 137t-45 137.5t-123 51.5t-125 -51.5t-47 -137.5z" />
<glyph unicode="e" horiz-adv-x="851" d="M53 350q0 160 108.5 264.5t270.5 104.5q180 0 280 -125q90 -112 90 -274q0 -19 -1 -39h-535q33 -127 183 -127q102 0 182 67l123 -123q-110 -116 -298 -116h-3q-180 0 -290 103t-110 265zM268 424h318q-25 123 -154 123q-133 0 -164 -123z" />
<glyph unicode="f" horiz-adv-x="532" d="M39 530v170h82v508q0 129 62.5 195.5t172.5 66.5q129 0 199 -79l-115 -129q-22 28 -60 28h-3q-51 0 -51 -80v-510h168v-170h-168v-530h-205v530h-82z" />
<glyph unicode="g" horiz-adv-x="808" d="M10 -209q0 135 137 182q-90 41 -90 146q0 98 97 143q-70 76 -70 178q0 121 85 200t214 79q66 -1 115 -19h256v-155h-101q29 -53 29 -105q0 -121 -85 -199.5t-214 -78.5q-74 0 -137 26q-18 -18 -19 -45q0 -31 34 -45t151 -20q190 -10 273 -77t83 -185q0 -125 -93 -199 t-280 -74q-182 0 -283.5 67.5t-101.5 180.5zM201 -190q-1 -93 194 -93q170 0 170 93q0 45 -44 65.5t-159 20.5q-162 0 -161 -86zM262 440.5q0 -53.5 33 -85t88 -31.5t88 31.5t33 85t-33 85t-88 31.5t-88 -31.5t-33 -85z" />
<glyph unicode="h" horiz-adv-x="845" d="M82 0v1454h205v-844q66 109 219 109q119 0 191.5 -79t72.5 -216v-424h-205v410q0 125 -125 125q-154 0 -153 -158v-377h-205z" />
<glyph unicode="i" horiz-adv-x="376" d="M59 1022q0 53 39 91t90 38q53 0 91 -37t38 -92t-38 -92t-91 -37q-51 0 -90 38t-39 91zM86 0v700h205v-700h-205z" />
<glyph unicode="j" horiz-adv-x="376" d="M-129 -377l100 125q31 -27 60 -27q55 0 55 64v915h205v-909q0 -119 -58 -182.5t-167 -63.5q-125 0 -195 78zM59 1022q0 53 39 91t90 38q53 0 91 -37t38 -92t-38 -92t-91 -37q-51 0 -90 38t-39 91z" />
<glyph unicode="k" horiz-adv-x="796" d="M82 0v1454h205v-1026l229 272h238l-250 -286l278 -414h-243l-172 258l-80 -90v-168h-205z" />
<glyph unicode="l" horiz-adv-x="376" d="M86 0v1454h205v-1454h-205z" />
<glyph unicode="m" horiz-adv-x="1271" d="M82 0v700h205v-79q63 98 196 98q139 0 199 -119q86 119 254 119q121 0 190.5 -79t69.5 -212v-428h-205v408q0 127 -112 127q-137 0 -138 -158v-377h-204v408q0 127 -113 127q-137 0 -137 -158v-377h-205z" />
<glyph unicode="n" horiz-adv-x="839" d="M82 0v700h205v-90q66 109 219 109q119 0 191.5 -79t72.5 -216v-424h-205v410q0 125 -125 125q-154 0 -153 -158v-377h-205z" />
<glyph unicode="o" horiz-adv-x="872" d="M53 350.5q0 157.5 110.5 263t272.5 105.5t272.5 -105.5t110.5 -263t-110.5 -263t-272.5 -105.5t-272.5 105.5t-110.5 263zM264 350q0 -86 47 -140t125 -54t125 54t47 140t-47 140.5t-125 54.5t-125 -54.5t-47 -140.5z" />
<glyph unicode="p" horiz-adv-x="890" d="M86 -434v1134h205v-79q61 98 217 98q137 0 233.5 -105.5t96.5 -263t-96.5 -263t-233.5 -105.5q-156 0 -217 98v-514h-205zM287 350q0 -86 45 -137t122.5 -51t125 51t47.5 137t-47.5 137.5t-125 51.5t-122.5 -51.5t-45 -137.5z" />
<glyph unicode="q" horiz-adv-x="890" d="M53 350.5q0 157.5 96.5 263t233.5 105.5q156 0 217 -98v79h205v-1134h-205v514q-61 -98 -217 -98q-137 0 -233.5 105.5t-96.5 263zM264 350q0 -86 47 -137t125 -51t123 51t45 137t-45 137.5t-123 51.5t-125 -51.5t-47 -137.5z" />
<glyph unicode="r" horiz-adv-x="618" d="M82 700h205v-108q61 127 200 127q61 0 111 -31l-66 -176q-41 23 -88 23q-158 0 -157 -205v-330h-205v700z" />
<glyph unicode="s" horiz-adv-x="669" d="M20 121l130 115q74 -88 182 -89q102 0 102 52q0 25 -25.5 39t-109.5 32q-231 49 -231 228q0 98 70.5 159.5t187.5 61.5q150 0 258 -96l-109 -125q-57 57 -143 57q-80 0 -80 -49q0 -27 27.5 -40t115.5 -30q233 -45 234 -223q0 -109 -76 -170t-217 -61q-188 0 -316 139z " />
<glyph unicode="t" horiz-adv-x="548" d="M39 530v170h82v457h205v-457h163v-170h-163v-284q0 -51 14 -69.5t45 -18.5q29 0 61 24l80 -143q-70 -57 -176 -57q-229 0 -229 260v288h-82z" />
<glyph unicode="u" horiz-adv-x="845" d="M76 276v424h205v-409q0 -125 125 -125q154 0 153 158v376h205v-700h-205v90q-65 -108 -219 -108q-119 0 -191.5 78.5t-72.5 215.5z" />
<glyph unicode="v" horiz-adv-x="776" d="M6 700h230l167 -340l162 340h205l-375 -718h-8z" />
<glyph unicode="w" horiz-adv-x="1112" d="M6 700h230l135 -331l186 350h6l197 -350l143 331h203l-328 -718h-8l-211 395l-221 -395h-8z" />
<glyph unicode="x" horiz-adv-x="802" d="M18 0l269 369l-238 331h234l125 -174l124 174h220l-238 -323l270 -377h-233l-156 217l-39 -53l-80 -111l-38 -53h-220z" />
<glyph unicode="y" horiz-adv-x="776" d="M6 700h230l167 -403l164 403h203l-473 -1134h-205l209 497z" />
<glyph unicode="z" horiz-adv-x="708" d="M31 0v8l325 522h-278v170h592v-8l-324 -522h305v-170h-620z" />
<glyph unicode="{" horiz-adv-x="712" d="M45 430v178h92q55 0 82 29t27 100v437q0 280 284 280h2h115v-178h-104q-45 0 -65.5 -21.5t-20.5 -74.5v-486q0 -147 -140 -174q139 -27 140 -174v-334q0 -53 20.5 -74.5t65.5 -21.5h104v-178h-115q-287 0 -286 280v283q0 72 -26.5 100.5t-82.5 28.5h-92z" />
<glyph unicode="|" horiz-adv-x="499" d="M143 -262v1716h213v-1716h-213z" />
<glyph unicode="}" horiz-adv-x="712" d="M66 -84h104q45 0 65.5 21.5t20.5 74.5v334q0 147 139 174q-139 27 -139 174v486q0 53 -20.5 74.5t-65.5 21.5h-104v178h114q287 0 287 -280v-437q0 -72 26.5 -100.5t81.5 -28.5h93v-178h-93q-55 0 -81.5 -28.5t-26.5 -100.5v-283q0 -280 -285 -280h-2h-114v178z" />
<glyph unicode="~" horiz-adv-x="741" d="M61 469q14 106 70.5 167.5t132.5 61.5q55 0 114.5 -29.5t82.5 -29.5q43 0 59 57l158 -20q-14 -106 -69.5 -168t-131.5 -62q-55 0 -114.5 30t-81.5 30q-43 0 -60 -57z" />
<glyph unicode="&#xa1;" horiz-adv-x="471" d="M92 1261.5q0 61.5 43 102.5t100.5 41t100.5 -41t43 -102.5t-43 -102.5t-100.5 -41t-100.5 41t-43 102.5zM119 0l31 958h172l30 -958h-233z" />
<glyph unicode="&#xa2;" horiz-adv-x="782" d="M53 350q0 137 86 236.5t219 124.5v194h150v-190q139 -18 225 -129l-135 -117q-31 47 -90 68v-375q53 16 100 63l133 -114q-92 -106 -233 -125v-203h-150v207q-133 27 -219 125t-86 235zM260 350q0 -133 98 -178v2v2v2v2v2v2v2v2v2v3v2v2v2v2v2v2v2v2v2v2v2v2v2v2v2v2v2v2 v2v2v3v2v4v2v2v2v2v2v2v2v4v2v2v2v2v4v2v2v3v4v2v2v4v2v2v4v2v2v4v2v2v4v2v5v2v2v4v2v4v2v4v2v4v2v4v2v4v2v5v2v4v2v4v4v2v4v2v4v4v2v5v4v2v4v4v2v4v4v2v4v4v4v2v5v4v4v2v4v4v4v2v4v4v4v5v4v2v4v4v4v18q-98 -45 -98 -178z" />
<glyph unicode="&#xa3;" horiz-adv-x="1015" d="M27 174q0 82 57 130t145 48q59 0 123 -26q-12 51 -47 114h-190v162h2h2h2h2h2h2h2h2h2h2h2h2h2h2h4h3h2h4h2h4h2h4h2h4h4h2h4h4h2h5h4h16q-45 94 -45 178q0 133 101.5 227.5t269.5 94.5q246 0 370 -205l-168 -104q-75 120 -198 120h-2q-74 0 -115 -41t-41 -104 q0 -72 43 -166h301v-162h-225q39 -92 39 -180q0 -14 -4 -43q84 -49 151 -49q53 0 87 18.5t75 59.5l129 -131q-115 -133 -283 -133q-127 0 -239 86q-90 -86 -217 -86q-96 0 -156.5 54t-60.5 138zM182 168q0 -49 66 -49q69 0 94 53q-49 43 -96 43q-63 0 -64 -47z" />
<glyph unicode="&#xa5;" horiz-adv-x="1105" d="M41 1085h235l285 -510l287 510h217l-252 -428h182v-151h-270q-59 -102 -61 -103h331v-151h-336v-252h-213v252h-335v151h329l-59 103h-270v151h180z" />
<glyph unicode="&#xa6;" d="M74 448.5q0 61.5 43 102.5t100 41t100 -41t43 -102.5t-43 -102.5t-100 -41t-100 41t-43 102.5z" />
<glyph unicode="&#xa7;" horiz-adv-x="1040" d="M43 365q0 159 170 249q-55 82 -55 174q0 143 98 228.5t258 85.5q231 0 360 -191l-165 -108q-70 117 -197 117q-72 0 -111 -32t-39 -89q0 -51 28 -81t106 -59l239 -88q266 -98 266 -325q0 -145 -170 -240q51 -70 52 -162q0 -131 -98.5 -210.5t-274.5 -79.5 q-131 0 -237.5 56t-157.5 146l153 115q90 -133 242 -133q158 0 158 102q0 41 -29 71t-113 58l-217 76q-137 49 -201.5 125t-64.5 195zM269.5 300q27.5 -34 92.5 -56l222 -78q82 -31 129 -60q88 45 88 125q0 55 -29 87t-98 57l-240 84q-68 25 -123 61q-69 -46 -69 -127 q0 -59 27.5 -93z" />
<glyph unicode="&#xa8;" horiz-adv-x="1024" d="M229 911q0 47 36 82t81 35q47 0 82 -33.5t35 -83t-35 -83t-82 -33.5q-45 0 -81 34.5t-36 81.5zM561 911q0 47 36 82t81 35q47 0 82 -33.5t35 -83t-35 -83t-82 -33.5q-45 0 -81 34.5t-36 81.5z" />
<glyph unicode="&#xa9;" horiz-adv-x="1255" d="M70 544.5q0 237.5 164.5 397.5t394.5 160q227 0 392 -160t165 -397.5t-165 -397t-392 -159.5q-229 0 -394 159.5t-165 397zM178 544.5q0 -194.5 131.5 -324.5t319.5 -130q186 0 317 131t131 323.5t-131 323.5t-317 131q-188 0 -319.5 -130t-131.5 -324.5zM297 544.5 q0 145.5 96 241t240 95.5q170 0 266 -113l-131 -121q-55 59 -131 60q-63 0 -99 -46.5t-36 -116t35.5 -115.5t101.5 -46q72 0 139 63l131 -118q-102 -119 -272 -119q-145 0 -242.5 95t-97.5 240.5z" />
<glyph unicode="&#xaa;" horiz-adv-x="714" d="M47 649q0 88 69.5 136.5t178.5 48.5h164q-2 110 -109 110h-2q-92 0 -158 -70l-112 105q102 123 293 123q121 0 199.5 -70.5t78.5 -208.5v-368h-190v57q-66 -74 -178 -74q-102 0 -168 53.5t-66 157.5zM236 647q0 -57 77 -57q61 0 103.5 26.5t42.5 65.5v25h-156 q-31 0 -49 -17.5t-18 -42.5z" />
<glyph unicode="&#xab;" horiz-adv-x="825" d="M57 348v8l158 279h215l-158 -283l158 -286h-215zM395 348v8l158 279h215l-158 -283l158 -286h-215z" />
<glyph unicode="&#xac;" d="M74 448.5q0 61.5 43 102.5t100 41t100 -41t43 -102.5t-43 -102.5t-100 -41t-100 41t-43 102.5z" />
<glyph unicode="&#xad;" horiz-adv-x="512" d="M68 338v186h376v-186h-376z" />
<glyph unicode="&#xae;" horiz-adv-x="798" d="M53 1069q0 147 99.5 244.5t245 97.5t246.5 -97t101 -245q0 -145 -101.5 -242.5t-246.5 -97.5q-143 0 -243.5 97.5t-100.5 242.5zM129 1069q0 -119 75.5 -194.5t192.5 -75.5q119 0 197 75.5t78 194.5q0 121 -78 197.5t-197 76.5q-117 0 -192.5 -75.5t-75.5 -198.5z M254 881v385h145q78 0 124 -43t46 -105q0 -83 -73 -123l69 -114h-112l-56 92h-37v-92h-106zM360 1059h37q66 0 66 57.5t-66 57.5h-37v-115z" />
<glyph unicode="&#xaf;" horiz-adv-x="1024" d="M309 836v155h406v-155h-406z" />
<glyph unicode="&#x2c9;" horiz-adv-x="1024" d="M309 836v155h406v-155h-406z" />
<glyph unicode="&#xb0;" horiz-adv-x="610" d="M68 870q0 98 70.5 165t171 67t171 -66.5t70.5 -165.5q0 -96 -70.5 -163.5t-171 -67.5t-171 67.5t-70.5 163.5zM213 870q0 -43 27.5 -71.5t68.5 -28.5t69 28.5t28 71.5t-28 72t-69 29t-68.5 -29t-27.5 -72z" />
<glyph unicode="&#xb2;" d="M74 448.5q0 61.5 43 102.5t100 41t100 -41t43 -102.5t-43 -102.5t-100 -41t-100 41t-43 102.5z" />
<glyph unicode="&#xb3;" d="M74 448.5q0 61.5 43 102.5t100 41t100 -41t43 -102.5t-43 -102.5t-100 -41t-100 41t-43 102.5z" />
<glyph unicode="&#xb4;" horiz-adv-x="1024" d="M428 791l102 311h232l-174 -311h-160z" />
<glyph unicode="&#xb5;" d="M74 448.5q0 61.5 43 102.5t100 41t100 -41t43 -102.5t-43 -102.5t-100 -41t-100 41t-43 102.5z" />
<glyph unicode="&#x3bc;" d="M74 448.5q0 61.5 43 102.5t100 41t100 -41t43 -102.5t-43 -102.5t-100 -41t-100 41t-43 102.5z" />
<glyph unicode="&#xb6;" horiz-adv-x="1189" d="M55 991q0 166 120 284t306 118h629v-1393h-209v1202h-121v-1202h-209v590h-90q-186 0 -306 117.5t-120 283.5zM281 991.5q0 -104.5 56 -158t150 -53.5h84v422h-84q-94 0 -150 -53t-56 -157.5z" />
<glyph unicode="&#xb7;" d="M74 448.5q0 61.5 43 102.5t100 41t100 -41t43 -102.5t-43 -102.5t-100 -41t-100 41t-43 102.5z" />
<glyph unicode="&#x2219;" d="M74 448.5q0 61.5 43 102.5t100 41t100 -41t43 -102.5t-43 -102.5t-100 -41t-100 41t-43 102.5z" />
<glyph unicode="&#xb8;" horiz-adv-x="1024" d="M324 -311l104 63q23 -43 68 -43q57 0 57 53q0 55 -64 56h-57v182h117v-88q63 -10 101 -51t38 -113q0 -70 -52 -114t-122 -44q-133 0 -190 99z" />
<glyph unicode="&#xb9;" d="M74 448.5q0 61.5 43 102.5t100 41t100 -41t43 -102.5t-43 -102.5t-100 -41t-100 41t-43 102.5z" />
<glyph unicode="&#xba;" horiz-adv-x="804" d="M57 770q0 141 100.5 236.5t248.5 95.5q145 0 246.5 -95.5t101.5 -236.5q0 -143 -101.5 -237.5t-246.5 -94.5q-147 0 -248 94.5t-101 237.5zM254 770q0 -78 41 -125t110.5 -47t110.5 47t41 125q0 76 -41 123t-110.5 47t-110.5 -47t-41 -123z" />
<glyph unicode="&#xbb;" horiz-adv-x="825" d="M57 66l158 282l-158 287h215l158 -283v-8l-158 -278h-215zM395 66l158 282l-158 287h215l158 -283v-8l-158 -278h-215z" />
<glyph unicode="&#xbc;" d="M74 448.5q0 61.5 43 102.5t100 41t100 -41t43 -102.5t-43 -102.5t-100 -41t-100 41t-43 102.5z" />
<glyph unicode="&#xbd;" d="M74 448.5q0 61.5 43 102.5t100 41t100 -41t43 -102.5t-43 -102.5t-100 -41t-100 41t-43 102.5z" />
<glyph unicode="&#xbe;" d="M74 448.5q0 61.5 43 102.5t100 41t100 -41t43 -102.5t-43 -102.5t-100 -41t-100 41t-43 102.5z" />
<glyph unicode="&#xbf;" horiz-adv-x="927" d="M63 377q0 162 87.5 264t257.5 131v197h200v-369h-73q-127 0 -188.5 -63.5t-61.5 -159.5q0 -86 55 -146.5t147 -60.5q84 0 138.5 40t101.5 118l168 -99q-55 -109 -159 -178t-247 -69q-195 0 -310.5 113.5t-115.5 281.5zM367 1261.5q0 61.5 43 102.5t100 41t100 -41 t43 -102.5t-43 -102.5t-100 -41t-100 41t-43 102.5z" />
<glyph unicode="&#xc0;" horiz-adv-x="1320" d="M43 0l610 1421h13l612 -1421h-231l-80 195h-623l-80 -195h-221zM405 1794h232l102 -311h-160zM426 389h459l-58 137l-112 277l-58 137z" />
<glyph unicode="&#xc1;" horiz-adv-x="1320" d="M43 0l610 1421h13l612 -1421h-231l-80 195h-623l-80 -195h-221zM426 389h459l-58 137l-112 277l-58 137zM580 1483l102 311h232l-174 -311h-160z" />
<glyph unicode="&#xc2;" horiz-adv-x="1320" d="M43 0l610 1421h13l612 -1421h-231l-80 195h-623l-80 -195h-221zM389 1483l264 311h10l264 -311h-162l-106 88l-109 -88h-161zM426 389h459l-58 137l-112 277l-58 137z" />
<glyph unicode="&#xc3;" horiz-adv-x="1320" d="M43 0l610 1421h13l612 -1421h-231l-80 195h-623l-80 -195h-221zM385 1499q14 94 61 149.5t115 55.5q53 0 107 -29t73 -29q39 0 53 56l139 -19q-14 -94 -61 -149.5t-115 -55.5q-53 0 -107 29t-73 29q-39 0 -53 -56zM426 389h459l-58 137l-112 277l-58 137z" />
<glyph unicode="&#xc4;" horiz-adv-x="1320" d="M43 0l610 1421h13l612 -1421h-231l-80 195h-623l-80 -195h-221zM213 1294q0 47 36 82t81 35q47 0 81.5 -34t34.5 -83t-34.5 -82.5t-81.5 -33.5q-45 0 -81 34.5t-36 81.5zM426 389h459l-58 137l-112 277l-58 137zM872 1294q0 47 36 82t81 35q47 0 82 -34t35 -83t-35 -82.5 t-82 -33.5q-45 0 -81 34.5t-36 81.5z" />
<glyph unicode="&#xc5;" horiz-adv-x="1320" d="M43 0l571 1329q-63 16 -106 66.5t-43 111.5q0 76 58.5 130.5t136 54.5t136 -54.5t58.5 -130.5q0 -61 -43 -111t-106 -67l573 -1329h-231l-80 195h-623l-80 -195h-221zM426 389h459l-58 137l-112 277l-58 137zM592 1507.5q0 -32.5 18.5 -52t49 -19.5t49 19.5t18.5 52 t-19.5 53t-48 20.5t-48 -20.5t-19.5 -53z" />
<glyph unicode="&#xc6;" horiz-adv-x="1964" d="M33 0l936 1393h862v-195h-668v-580h592v-190h-592v-233h697v-195h-916v195h-559l-129 -195h-223zM514 389h430v645z" />
<glyph unicode="&#xc7;" horiz-adv-x="1454" d="M84 696q0 307 205 511t506 204q365 0 557 -270l-168 -119q-141 190 -396 190q-207 0 -342 -147t-135 -369q0 -225 137.5 -370.5t348.5 -145.5q260 0 417 203l170 -117q-209 -276 -569 -284v-70q63 -10 101 -51t38 -113q0 -70 -52 -114t-122 -44q-133 0 -190 99l104 63 q23 -43 68 -43q57 0 57 53q0 55 -63 56h-58v170q-266 31 -440 228.5t-174 479.5z" />
<glyph unicode="&#xc8;" horiz-adv-x="1171" d="M152 0v1393h886v-195h-667v-577h592v-191h-592v-235h696v-195h-915zM364 1794h232l102 -311h-160z" />
<glyph unicode="&#xc9;" horiz-adv-x="1171" d="M152 0v1393h886v-195h-667v-577h592v-191h-592v-235h696v-195h-915zM520 1483l102 311h232l-174 -311h-160z" />
<glyph unicode="&#xca;" horiz-adv-x="1171" d="M152 0v1393h886v-195h-667v-577h592v-191h-592v-235h696v-195h-915zM344 1483l264 311h10l264 -311h-162l-106 88l-109 -88h-161z" />
<glyph unicode="&#xcb;" horiz-adv-x="1171" d="M152 0v1393h886v-195h-667v-577h592v-191h-592v-235h696v-195h-915zM329 1603q0 47 36 82t81 35q47 0 82 -33.5t35 -83t-35 -83t-82 -33.5q-45 0 -81 34.5t-36 81.5zM661 1603q0 47 36 82t81 35q47 0 82 -33.5t35 -83t-35 -83t-82 -33.5q-45 0 -81 34.5t-36 81.5z" />
<glyph unicode="&#xcc;" horiz-adv-x="534" d="M16 1794h232l102 -311h-160zM158 0v1393h219v-1393h-219z" />
<glyph unicode="&#xcd;" horiz-adv-x="534" d="M158 0v1393h219v-1393h-219zM182 1483l102 311h232l-174 -311h-160z" />
<glyph unicode="&#xce;" horiz-adv-x="534" d="M-4 1483l264 311h10l264 -311h-162l-106 88l-109 -88h-161zM158 0v1393h219v-1393h-219z" />
<glyph unicode="&#xcf;" horiz-adv-x="534" d="M-17 1603q0 47 36 82t81 35q47 0 82 -33.5t35 -83t-35 -83t-82 -33.5q-45 0 -81 34.5t-36 81.5zM158 0v1393h219v-1393h-219zM315 1603q0 47 36 82t81 35q47 0 82 -33.5t35 -83t-35 -83t-82 -33.5q-45 0 -81 34.5t-36 81.5z" />
<glyph unicode="&#xd0;" horiz-adv-x="1361" d="M23 430v191h129v772h393q338 0 535.5 -191.5t197.5 -505t-197.5 -505t-535.5 -191.5h-393v430h-129zM371 621h336v-191h-336v-235h161q260 0 389.5 135t129.5 366.5t-129 366.5t-390 135h-161v-577z" />
<glyph unicode="&#xd1;" horiz-adv-x="1415" d="M152 0v1413h16l893 -936v916h205v-1413h-17l-893 935v-915h-204zM433 1499q14 94 61 149.5t115 55.5q53 0 107 -29t73 -29q39 0 53 56l139 -19q-14 -94 -61 -149.5t-115 -55.5q-53 0 -107 29t-73 29q-39 0 -53 -56z" />
<glyph unicode="&#xd2;" horiz-adv-x="1605" d="M84 696.5q0 307.5 208 511t511 203.5t511 -203.5t208 -511t-208 -511t-511 -203.5t-511 203.5t-208 511zM311 696.5q0 -223.5 138.5 -370t353.5 -146.5t353 146.5t138 370t-138 369.5t-353 146t-353.5 -146t-138.5 -369.5zM553 1794h232l102 -311h-160z" />
<glyph unicode="&#xd3;" horiz-adv-x="1605" d="M84 696.5q0 307.5 208 511t511 203.5t511 -203.5t208 -511t-208 -511t-511 -203.5t-511 203.5t-208 511zM311 696.5q0 -223.5 138.5 -370t353.5 -146.5t353 146.5t138 370t-138 369.5t-353 146t-353.5 -146t-138.5 -369.5zM719 1483l102 311h232l-174 -311h-160z" />
<glyph unicode="&#xd4;" horiz-adv-x="1605" d="M84 696.5q0 307.5 208 511t511 203.5t511 -203.5t208 -511t-208 -511t-511 -203.5t-511 203.5t-208 511zM311 696.5q0 -223.5 138.5 -370t353.5 -146.5t353 146.5t138 370t-138 369.5t-353 146t-353.5 -146t-138.5 -369.5zM533 1483l264 311h10l264 -311h-162l-106 88 l-109 -88h-161z" />
<glyph unicode="&#xd5;" horiz-adv-x="1605" d="M84 696.5q0 307.5 208 511t511 203.5t511 -203.5t208 -511t-208 -511t-511 -203.5t-511 203.5t-208 511zM311 696.5q0 -223.5 138.5 -370t353.5 -146.5t353 146.5t138 370t-138 369.5t-353 146t-353.5 -146t-138.5 -369.5zM529 1499q14 94 61 149.5t115 55.5 q53 0 107 -29t73 -29q39 0 53 56l139 -19q-14 -94 -61 -149.5t-115 -55.5q-53 0 -107 29t-73 29q-39 0 -53 -56z" />
<glyph unicode="&#xd6;" horiz-adv-x="1605" d="M84 696.5q0 307.5 208 511t511 203.5t511 -203.5t208 -511t-208 -511t-511 -203.5t-511 203.5t-208 511zM311 696.5q0 -223.5 138.5 -370t353.5 -146.5t353 146.5t138 370t-138 369.5t-353 146t-353.5 -146t-138.5 -369.5zM520 1603.5q0 47.5 36 82t81 34.5 q47 0 82 -33.5t35 -83t-35 -83t-82 -33.5q-45 0 -81 34.5t-36 82zM852 1603.5q0 47.5 36 82t81 34.5q47 0 81.5 -33.5t34.5 -83t-34.5 -83t-81.5 -33.5q-45 0 -81 34.5t-36 82z" />
<glyph unicode="&#xd7;" d="M74 448.5q0 61.5 43 102.5t100 41t100 -41t43 -102.5t-43 -102.5t-100 -41t-100 41t-43 102.5z" />
<glyph unicode="&#xd8;" horiz-adv-x="1605" d="M70 100l159 156q-145 193 -145 440q0 307 208 511t511 204q256 0 452 -154l158 154l123 -121l-160 -155q145 -188 146 -439q0 -307 -208 -510.5t-511 -203.5q-260 0 -453 153l-157 -155zM309 696q0 -163 74 -288l727 706q-129 100 -307 100q-215 0 -354.5 -147 t-139.5 -371zM498 279q129 -100 305 -101q215 0 354 147.5t139 374.5q0 158 -73 285z" />
<glyph unicode="&#xd9;" horiz-adv-x="1349" d="M143 492v901h219v-889q0 -324 314 -324q311 0 311 324v889h219v-901q0 -246 -147 -378t-383 -132q-238 0 -385.5 132t-147.5 378zM424 1794h232l102 -311h-160z" />
<glyph unicode="&#xda;" horiz-adv-x="1349" d="M143 492v901h219v-889q0 -324 314 -324q311 0 311 324v889h219v-901q0 -246 -147 -378t-383 -132q-238 0 -385.5 132t-147.5 378zM590 1483l102 311h232l-174 -311h-160z" />
<glyph unicode="&#xdb;" horiz-adv-x="1349" d="M143 492v901h219v-889q0 -324 314 -324q311 0 311 324v889h219v-901q0 -246 -147 -378t-383 -132q-238 0 -385.5 132t-147.5 378zM404 1483l264 311h10l264 -311h-162l-106 88l-109 -88h-161z" />
<glyph unicode="&#xdc;" horiz-adv-x="1349" d="M143 492v901h219v-889q0 -324 314 -324q311 0 311 324v889h219v-901q0 -246 -147 -378t-383 -132q-238 0 -385.5 132t-147.5 378zM434 1298q0 43 32 74t73 31q43 0 73.5 -31t30.5 -74t-30.5 -73.5t-73.5 -30.5q-41 0 -73 30.5t-32 73.5zM705 1298q0 43 31.5 74t72.5 31 q43 0 73.5 -31t30.5 -74t-30.5 -73.5t-73.5 -30.5q-41 0 -72.5 30.5t-31.5 73.5z" />
<glyph unicode="&#xdd;" horiz-adv-x="1339" d="M43 1393h242l395 -727l389 727h229l-512 -949v-444h-219v442zM586 1483l102 311h232l-174 -311h-160z" />
<glyph unicode="&#xde;" horiz-adv-x="1181" d="M152 0v1393h219v-156h137q283 0 438.5 -143.5t155.5 -388.5q0 -244 -157 -387.5t-437 -143.5h-137v-174h-219zM371 369h129q377 0 377 336q0 337 -375 337h-2h-129v-673z" />
<glyph unicode="&#xdf;" horiz-adv-x="944" d="M82 0v1163q0 145 93 226t224 81q135 0 225.5 -78.5t90.5 -228.5v-598q-147 -6 -148 -63q0 -27 22.5 -38t100.5 -30q213 -47 213 -223q0 -229 -268 -229q-188 0 -281 102l117 131q68 -68 152 -68q86 0 86 52q0 8 -1 14t-6 11l-8 9q-4 5 -12 8t-14 6t-20 6l-22 5l-28 6 q-18 4 -31 8q-184 45 -184 222q0 143 129 196v477q0 129 -112.5 129t-112.5 -127v-1169h-205z" />
<glyph unicode="&#xe0;" horiz-adv-x="778" d="M41 215q0 98 77 151.5t197 53.5h183q-2 127 -129 127q-102 0 -168 -76l-125 115q117 133 305 133q152 0 236.5 -79t84.5 -230v-410h-204v63q-69 -81 -194 -81h-3q-115 0 -187.5 58t-72.5 175zM135 1102h232l102 -311h-160zM244 213q0 -68 94 -68q68 0 114 32t46 75v29 h-172q-82 0 -82 -68z" />
<glyph unicode="&#xe1;" horiz-adv-x="778" d="M41 215q0 98 77 151.5t197 53.5h183q-2 127 -129 127q-102 0 -168 -76l-125 115q117 133 305 133q152 0 236.5 -79t84.5 -230v-410h-204v63q-69 -81 -194 -81h-3q-115 0 -187.5 58t-72.5 175zM244 213q0 -68 94 -68q68 0 114 32t46 75v29h-172q-82 0 -82 -68zM307 791 l102 311h232l-174 -311h-160z" />
<glyph unicode="&#xe2;" horiz-adv-x="778" d="M41 215q0 98 77 151.5t197 53.5h183q-2 127 -129 127q-102 0 -168 -76l-125 115q117 133 305 133q152 0 236.5 -79t84.5 -230v-410h-204v63q-69 -81 -194 -81h-3q-115 0 -187.5 58t-72.5 175zM115 791l264 311h10l264 -311h-162l-106 88l-109 -88h-161zM244 213 q0 -68 94 -68q68 0 114 32t46 75v29h-172q-82 0 -82 -68z" />
<glyph unicode="&#xe3;" horiz-adv-x="778" d="M41 215q0 98 77 151.5t197 53.5h183q-2 127 -129 127q-102 0 -168 -76l-125 115q117 133 305 133q152 0 236.5 -79t84.5 -230v-410h-204v63q-69 -81 -194 -81h-3q-115 0 -187.5 58t-72.5 175zM111 807q14 94 61 149.5t115 55.5q53 0 107 -29t73 -29q39 0 53 56l139 -19 q-14 -94 -61 -149.5t-115 -55.5q-53 0 -107 29t-73 29q-39 0 -53 -56zM244 213q0 -68 94 -68q68 0 114 32t46 75v29h-172q-82 0 -82 -68z" />
<glyph unicode="&#xe4;" horiz-adv-x="778" d="M41 215q0 98 77 151.5t197 53.5h183q-2 127 -129 127q-102 0 -168 -76l-125 115q117 133 305 133q152 0 236.5 -79t84.5 -230v-410h-204v63q-69 -81 -194 -81h-3q-115 0 -187.5 58t-72.5 175zM102 911q0 47 36 82t81 35q47 0 82 -33.5t35 -83t-35 -83t-82 -33.5 q-45 0 -81 34.5t-36 81.5zM244 213q0 -68 94 -68q68 0 114 32t46 75v29h-172q-82 0 -82 -68zM434 911q0 47 36 82t81 35q47 0 82 -33.5t35 -83t-35 -83t-82 -33.5q-45 0 -81 34.5t-36 81.5z" />
<glyph unicode="&#xe5;" horiz-adv-x="778" d="M41 215q0 98 77 151.5t197 53.5h183q-2 127 -129 127q-102 0 -168 -76l-125 115q117 133 305 133q152 0 236.5 -79t84.5 -230v-410h-204v63q-69 -81 -194 -81h-3q-115 0 -187.5 58t-72.5 175zM190 958q0 76 58.5 130.5t136.5 54.5t136.5 -54.5t58.5 -130.5 q0 -74 -58.5 -128t-136.5 -54t-136.5 54.5t-58.5 127.5zM244 213q0 -68 94 -68q68 0 114 32t46 75v29h-172q-82 0 -82 -68zM317 958.5q0 -32.5 18.5 -52t49.5 -19.5t49.5 19.5t18.5 52t-19.5 53t-48.5 20.5t-48.5 -20.5t-19.5 -53z" />
<glyph unicode="&#xe6;" horiz-adv-x="1290" d="M41 215q0 98 77 150.5t197 52.5h187q-2 129 -133 129q-102 0 -168 -76l-125 115q117 133 305 133q159 0 229 -117q94 117 260 117q180 0 280 -126q90 -113 90 -275q0 -19 -1 -39h-534q37 -125 182 -125q102 0 182 67l123 -123q-110 -116 -298 -116h-3q-199 0 -293 133 q-90 -133 -297 -133q-115 0 -187.5 58t-72.5 175zM244 213q0 -68 94 -68q70 0 117 31t47 76v27h-176q-82 0 -82 -66zM705 418h319q-25 129 -154 129q-132 0 -165 -129z" />
<glyph unicode="&#xe7;" horiz-adv-x="761" d="M53 350q0 160 105.5 264.5t263.5 104.5q186 0 293 -123l-135 -125q-61 70 -152 70q-76 0 -120 -54.5t-44 -136.5t45 -136t123 -54q90 0 160 73l135 -122q-104 -121 -278 -129v-70q63 -10 101 -51t38 -113q0 -70 -52.5 -114t-121.5 -44q-133 0 -191 99l105 63 q20 -43 67 -43q57 0 58 53q0 55 -64 56h-57v174q-125 29 -202 127t-77 231z" />
<glyph unicode="&#xe8;" horiz-adv-x="851" d="M53 350q0 160 108.5 264.5t270.5 104.5q180 0 280 -125q90 -112 90 -274q0 -19 -1 -39h-535q33 -127 183 -127q102 0 182 67l123 -123q-110 -116 -298 -116h-3q-180 0 -290 103t-110 265zM176 1102h232l102 -311h-160zM268 424h318q-25 123 -154 123q-133 0 -164 -123z " />
<glyph unicode="&#xe9;" horiz-adv-x="851" d="M53 350q0 160 108.5 264.5t270.5 104.5q180 0 280 -125q90 -112 90 -274q0 -19 -1 -39h-535q33 -127 183 -127q102 0 182 67l123 -123q-110 -116 -298 -116h-3q-180 0 -290 103t-110 265zM268 424h318q-25 123 -154 123q-133 0 -164 -123zM348 791l102 311h232l-174 -311 h-160z" />
<glyph unicode="&#xea;" horiz-adv-x="851" d="M53 350q0 160 108.5 264.5t270.5 104.5q180 0 280 -125q90 -112 90 -274q0 -19 -1 -39h-535q33 -127 183 -127q102 0 182 67l123 -123q-110 -116 -298 -116h-3q-180 0 -290 103t-110 265zM162 791l264 311h10l264 -311h-162l-106 88l-109 -88h-161zM268 424h318 q-25 123 -154 123q-133 0 -164 -123z" />
<glyph unicode="&#xeb;" horiz-adv-x="851" d="M53 350q0 160 108.5 264.5t270.5 104.5q180 0 280 -125q90 -112 90 -274q0 -19 -1 -39h-535q33 -127 183 -127q102 0 182 67l123 -123q-110 -116 -298 -116h-3q-180 0 -290 103t-110 265zM143 911q0 47 36 82t81 35q47 0 82 -33.5t35 -83t-35 -83t-82 -33.5 q-45 0 -81 34.5t-36 81.5zM268 424h318q-25 123 -154 123q-133 0 -164 -123zM475 911q0 47 36 82t81 35q47 0 82 -33.5t35 -83t-35 -83t-82 -33.5q-45 0 -81 34.5t-36 81.5z" />
<glyph unicode="&#xec;" horiz-adv-x="376" d="M-62 1102h232l102 -311h-160zM86 0v700h205v-700h-205z" />
<glyph unicode="&#xed;" horiz-adv-x="376" d="M86 0v700h205v-700h-205zM104 791l102 311h232l-174 -311h-160z" />
<glyph unicode="&#xee;" horiz-adv-x="376" d="M-82 791l264 311h10l264 -311h-162l-106 88l-109 -88h-161zM86 0v700h205v-700h-205z" />
<glyph unicode="&#xef;" horiz-adv-x="376" d="M-95 911q0 47 36 82t81 35q47 0 82 -33.5t35 -83t-35 -83t-82 -33.5q-45 0 -81 34.5t-36 81.5zM86 0v700h205v-700h-205zM237 911q0 47 36 82t81 35q47 0 82 -33.5t35 -83t-35 -83t-82 -33.5q-45 0 -81 34.5t-36 81.5z" />
<glyph unicode="&#xf0;" horiz-adv-x="872" d="M53 350q0 160 100.5 264.5t239.5 104.5q137 0 203 -90q-47 242 -190 430l-103 -86l-94 100l106 88q-59 63 -155 142l96 133q117 -76 199 -158l102 86l94 -100l-104 -86q272 -330 272 -736q0 -227 -106.5 -343.5t-276.5 -116.5q-162 0 -272.5 105.5t-110.5 262.5zM264 350 q0 -86 47 -140t125 -54t125 54t47 140t-47 140.5t-125 54.5t-125 -54.5t-47 -140.5z" />
<glyph unicode="&#xf1;" horiz-adv-x="839" d="M82 0v700h205v-90q66 109 219 109q119 0 191.5 -79t72.5 -216v-424h-205v410q0 125 -125 125q-154 0 -153 -158v-377h-205zM148 807q14 94 61 149.5t115 55.5q53 0 107 -29t73 -29q39 0 53 56l139 -19q-14 -94 -61 -149.5t-115 -55.5q-53 0 -107 29t-73 29q-39 0 -53 -56 z" />
<glyph unicode="&#xf2;" horiz-adv-x="872" d="M53 350.5q0 157.5 110.5 263t272.5 105.5t272.5 -105.5t110.5 -263t-110.5 -263t-272.5 -105.5t-272.5 105.5t-110.5 263zM186 1102h232l102 -311h-160zM264 350q0 -86 47 -140t125 -54t125 54t47 140t-47 140.5t-125 54.5t-125 -54.5t-47 -140.5z" />
<glyph unicode="&#xf3;" horiz-adv-x="872" d="M53 350.5q0 157.5 110.5 263t272.5 105.5t272.5 -105.5t110.5 -263t-110.5 -263t-272.5 -105.5t-272.5 105.5t-110.5 263zM264 350q0 -86 47 -140t125 -54t125 54t47 140t-47 140.5t-125 54.5t-125 -54.5t-47 -140.5zM352 791l102 311h232l-174 -311h-160z" />
<glyph unicode="&#xf4;" horiz-adv-x="872" d="M53 350.5q0 157.5 110.5 263t272.5 105.5t272.5 -105.5t110.5 -263t-110.5 -263t-272.5 -105.5t-272.5 105.5t-110.5 263zM166 791l264 311h10l264 -311h-162l-106 88l-109 -88h-161zM264 350q0 -86 47 -140t125 -54t125 54t47 140t-47 140.5t-125 54.5t-125 -54.5 t-47 -140.5z" />
<glyph unicode="&#xf5;" horiz-adv-x="872" d="M53 350.5q0 157.5 110.5 263t272.5 105.5t272.5 -105.5t110.5 -263t-110.5 -263t-272.5 -105.5t-272.5 105.5t-110.5 263zM162 807q14 94 61 149.5t115 55.5q53 0 107 -29t73 -29q39 0 53 56l139 -19q-14 -94 -61 -149.5t-115 -55.5q-53 0 -107 29t-73 29q-39 0 -53 -56z M264 350q0 -86 47 -140t125 -54t125 54t47 140t-47 140.5t-125 54.5t-125 -54.5t-47 -140.5z" />
<glyph unicode="&#xf6;" horiz-adv-x="872" d="M53 350.5q0 157.5 110.5 263t272.5 105.5t272.5 -105.5t110.5 -263t-110.5 -263t-272.5 -105.5t-272.5 105.5t-110.5 263zM153 911q0 47 36 82t81 35q47 0 82 -33.5t35 -83t-35 -83t-82 -33.5q-45 0 -81 34.5t-36 81.5zM264 350q0 -86 47 -140t125 -54t125 54t47 140 t-47 140.5t-125 54.5t-125 -54.5t-47 -140.5zM485 911q0 47 36 82t81 35q47 0 82 -33.5t35 -83t-35 -83t-82 -33.5q-45 0 -81 34.5t-36 81.5z" />
<glyph unicode="&#xf7;" d="M74 448.5q0 61.5 43 102.5t100 41t100 -41t43 -102.5t-43 -102.5t-100 -41t-100 41t-43 102.5z" />
<glyph unicode="&#xf8;" horiz-adv-x="872" d="M12 74l94 82q-53 90 -53 194q0 158 110.5 263.5t272.5 105.5q135 0 240 -78l98 86l86 -98l-96 -82q55 -90 55 -197q0 -158 -110.5 -263t-272.5 -105q-135 0 -239 77l-99 -84zM250 350q0 -36 6 -67l287 245q-39 27 -107 27q-86 0 -136 -57.5t-50 -147.5zM328 172 q47 -27 108 -27q86 0 136.5 57.5t50.5 147.5q-1 35 -7 70z" />
<glyph unicode="&#xf9;" horiz-adv-x="845" d="M76 276v424h205v-409q0 -125 125 -125q154 0 153 158v376h205v-700h-205v90q-65 -108 -219 -108q-119 0 -191.5 78.5t-72.5 215.5zM172 1102h232l102 -311h-160z" />
<glyph unicode="&#xfa;" horiz-adv-x="845" d="M76 276v424h205v-409q0 -125 125 -125q154 0 153 158v376h205v-700h-205v90q-65 -108 -219 -108q-119 0 -191.5 78.5t-72.5 215.5zM338 791l102 311h232l-174 -311h-160z" />
<glyph unicode="&#xfb;" horiz-adv-x="845" d="M76 276v424h205v-409q0 -125 125 -125q154 0 153 158v376h205v-700h-205v90q-65 -108 -219 -108q-119 0 -191.5 78.5t-72.5 215.5zM152 791l264 311h10l264 -311h-162l-106 88l-109 -88h-161z" />
<glyph unicode="&#xfc;" horiz-adv-x="845" d="M76 276v424h205v-409q0 -125 125 -125q154 0 153 158v376h205v-700h-205v90q-65 -108 -219 -108q-119 0 -191.5 78.5t-72.5 215.5zM139 911q0 47 36 82t81 35q47 0 82 -33.5t35 -83t-35 -83t-82 -33.5q-45 0 -81 34.5t-36 81.5zM471 911q0 47 36 82t81 35q47 0 82 -33.5 t35 -83t-35 -83t-82 -33.5q-45 0 -81 34.5t-36 81.5z" />
<glyph unicode="&#xfd;" horiz-adv-x="776" d="M6 700h230l167 -403l164 403h203l-473 -1134h-205l209 497zM311 791l102 311h232l-174 -311h-160z" />
<glyph unicode="&#xfe;" horiz-adv-x="890" d="M86 -434v1888h205v-833q61 98 217 98q137 0 233.5 -105.5t96.5 -263t-96.5 -263t-233.5 -105.5q-156 0 -217 98v-514h-205zM287 350q0 -86 45 -137t122.5 -51t125 51t47.5 137t-47.5 137.5t-125 51.5t-122.5 -51.5t-45 -137.5z" />
<glyph unicode="&#xff;" horiz-adv-x="776" d="M6 700h230l167 -403l164 403h203l-473 -1134h-205l209 497zM108 911q0 47 36 82t81 35q47 0 82 -33.5t35 -83t-35 -83t-82 -33.5q-45 0 -81 34.5t-36 81.5zM440 911q0 47 36 82t81 35q47 0 82 -33.5t35 -83t-35 -83t-82 -33.5q-45 0 -81 34.5t-36 81.5z" />
<glyph unicode="&#x131;" horiz-adv-x="376" d="M86 0v700h205v-700h-205z" />
<glyph unicode="&#x152;" horiz-adv-x="1980" d="M84 696.5q0 313.5 197.5 505t535.5 191.5h1030v-195h-667v-580h592v-190h-592v-233h696v-195h-1059q-338 0 -535.5 191.5t-197.5 505zM311 696.5q0 -231.5 129 -366.5t389 -135h132v1003h-132q-260 0 -389 -135t-129 -366.5z" />
<glyph unicode="&#x153;" horiz-adv-x="1411" d="M53 350.5q0 157.5 110.5 263t272.5 105.5q178 0 277 -127q100 127 278 127q180 0 281 -126q89 -113 89 -279q0 -19 -1 -40h-533q37 -120 179 -120h2q102 0 182 67l123 -123q-110 -116 -298 -116h-3h-3q-195 0 -296 124q-97 -124 -274 -124h-3q-162 0 -272.5 105.5 t-110.5 263zM264 350q0 -86 47 -140t125 -54t125 54t47 140t-47 140.5t-125 54.5t-125 -54.5t-47 -140.5zM825 418h320q-25 129 -154 129q-133 0 -166 -129z" />
<glyph unicode="&#x178;" horiz-adv-x="1339" d="M43 1393h242l395 -727l389 727h229l-512 -949v-444h-219v442zM387 1603.5q0 47.5 36 82t81 34.5q47 0 82 -33.5t35 -83t-35 -83t-82 -33.5q-45 0 -81 34.5t-36 82zM719 1603.5q0 47.5 36 82t81 34.5q47 0 81.5 -33.5t34.5 -83t-34.5 -83t-81.5 -33.5q-45 0 -81 34.5 t-36 82z" />
<glyph unicode="&#x2c6;" horiz-adv-x="1024" d="M242 791l264 311h10l264 -311h-162l-106 88l-109 -88h-161z" />
<glyph unicode="&#x2da;" horiz-adv-x="1024" d="M317 958q0 76 58.5 130.5t136.5 54.5t136.5 -54.5t58.5 -130.5q0 -74 -58.5 -128t-136.5 -54t-136.5 54.5t-58.5 127.5zM444 958.5q0 -32.5 18.5 -52t49.5 -19.5t49.5 19.5t18.5 52t-19.5 53t-48.5 20.5t-48.5 -20.5t-19.5 -53z" />
<glyph unicode="&#x2dc;" horiz-adv-x="1024" d="M238 807q14 94 61 149.5t115 55.5q53 0 107 -29t73 -29q39 0 53 56l139 -19q-14 -94 -61 -149.5t-115 -55.5q-53 0 -107 29t-73 29q-39 0 -53 -56z" />
<glyph unicode="&#x2000;" horiz-adv-x="897" />
<glyph unicode="&#x2001;" horiz-adv-x="1794" />
<glyph unicode="&#x2002;" horiz-adv-x="897" />
<glyph unicode="&#x2003;" horiz-adv-x="1794" />
<glyph unicode="&#x2004;" horiz-adv-x="598" />
<glyph unicode="&#x2005;" horiz-adv-x="448" />
<glyph unicode="&#x2006;" horiz-adv-x="299" />
<glyph unicode="&#x2007;" horiz-adv-x="299" />
<glyph unicode="&#x2008;" horiz-adv-x="224" />
<glyph unicode="&#x2009;" horiz-adv-x="358" />
<glyph unicode="&#x200a;" horiz-adv-x="99" />
<glyph unicode="&#x2010;" horiz-adv-x="512" d="M68 338v186h376v-186h-376z" />
<glyph unicode="&#x2011;" horiz-adv-x="512" d="M68 338v186h376v-186h-376z" />
<glyph unicode="&#x2012;" horiz-adv-x="512" d="M68 338v186h376v-186h-376z" />
<glyph unicode="&#x2013;" horiz-adv-x="819" d="M68 338v186h684v-186h-684z" />
<glyph unicode="&#x2014;" horiz-adv-x="1310" d="M68 338v186h1175v-186h-1175z" />
<glyph unicode="&#x2018;" horiz-adv-x="436" d="M80 1075q0 66 47 144l109 174h104l-70 -189q86 -41 86 -127q0 -59 -41 -98t-98 -39q-55 0 -96 39t-41 96z" />
<glyph unicode="&#x2019;" horiz-adv-x="436" d="M80 1274q0 59 41 98t98 39q55 0 96 -39t41 -96q0 -66 -47 -143l-108 -175h-105l70 189q-86 41 -86 127z" />
<glyph unicode="&#x201a;" horiz-adv-x="436" d="M80 127q0 59 41 98t98 39q55 0 96 -39t41 -96q0 -66 -47 -143l-108 -174h-105l70 188q-86 41 -86 127z" />
<glyph unicode="&#x201c;" horiz-adv-x="798" d="M80 1075q0 66 47 144l109 174h104l-70 -189q86 -41 86 -127q0 -59 -41 -98t-98 -39q-55 0 -96 39t-41 96zM442 1075q0 66 47 144l109 174h104l-69 -189q86 -41 86 -127q0 -59 -41 -98t-98 -39q-55 0 -96.5 39t-41.5 96z" />
<glyph unicode="&#x201d;" horiz-adv-x="798" d="M80 1274q0 59 41 98t98 39q55 0 96 -39t41 -96q0 -66 -47 -143l-108 -175h-105l70 189q-86 41 -86 127zM442 1274q0 59 41 98t99 39q55 0 96 -39t41 -96q0 -66 -47 -143l-109 -175h-104l69 189q-86 41 -86 127z" />
<glyph unicode="&#x201e;" horiz-adv-x="798" d="M80 127q0 59 41 98t98 39q55 0 96 -39t41 -96q0 -66 -47 -143l-108 -174h-105l70 188q-86 41 -86 127zM442 127q0 59 41 98t99 39q55 0 96 -39t41 -96q0 -66 -47 -143l-109 -174h-104l69 188q-86 41 -86 127z" />
<glyph unicode="&#x2022;" horiz-adv-x="528" d="M68 532q0 84 58 140.5t138 56.5t138.5 -56.5t58.5 -140.5q0 -82 -58.5 -139t-138.5 -57t-138 57.5t-58 138.5z" />
<glyph unicode="&#x2026;" horiz-adv-x="1257" d="M74 131.5q0 61.5 43 102t100 40.5t100 -40.5t43 -102t-43 -102.5t-100 -41t-100 41t-43 102.5zM485 131.5q0 61.5 43 102t100.5 40.5t100.5 -40.5t43 -102t-43 -102.5t-100.5 -41t-100.5 41t-43 102.5zM897 131.5q0 61.5 43 102t100.5 40.5t100.5 -40.5t43 -102 t-43 -102.5t-100.5 -41t-100.5 41t-43 102.5z" />
<glyph unicode="&#x202f;" horiz-adv-x="358" />
<glyph unicode="&#x2039;" horiz-adv-x="487" d="M57 348v8l158 279h215l-158 -283l158 -286h-215z" />
<glyph unicode="&#x203a;" horiz-adv-x="487" d="M57 66l158 282l-158 287h215l158 -283v-8l-158 -278h-215z" />
<glyph unicode="&#x205f;" horiz-adv-x="448" />
<glyph unicode="&#x20ac;" horiz-adv-x="1216" d="M43 596v152h2h2h2h2h2h2h2h2h2h2h3h2h2h2h2h2h2h4h2h2h2h2h4h2h2h4h2h2h5h2h4h2h4h2h4h2h4h2h4h2h4h5h2h4h4h2h4h4h4h2h4h4h21q63 160 207.5 257t318.5 97q276 0 412 -199l-148 -121q-94 135 -264 136q-203 0 -297 -170h367v-152h-414q-2 -16 -2 -53q0 -33 2 -49h414 v-152h-369q92 -176 299 -176q190 0 289 145l156 -114q-143 -215 -445 -215q-176 0 -320.5 99t-205.5 261h-164v152h129q-2 16 -2 49q0 35 2 53h-129z" />
<glyph unicode="&#x2122;" horiz-adv-x="1091" d="M53 1278v115h389v-115h-123v-352h-139v352h-127zM520 926v473h12l230 -228l227 228h12v-473h-137v192l-102 -112l-103 112v-192h-139z" />
<glyph unicode="&#xe000;" horiz-adv-x="700" d="M0 700h700v-700h-700v700z" />
<glyph unicode="&#xfb01;" horiz-adv-x="827" d="M39 530v170h82v508q0 129 62.5 195.5t172.5 66.5q129 0 199 -79l-115 -129q-22 28 -60 28h-3q-51 0 -51 -80v-510h415v-700h-204v530h-211v-530h-205v530h-82zM510 1022q0 53 39 91t90 38q53 0 91 -37t38 -92t-38 -92t-91 -37q-51 0 -90 38t-39 91z" />
<glyph unicode="&#xfb02;" horiz-adv-x="837" d="M39 530v170h82v463q0 145 92 226t223 81q139 0 227.5 -78.5t88.5 -230.5v-1161h-205v1163q0 133 -110.5 133t-110.5 -127v-469h131v-170h-131v-530h-205v530h-82z" />
<glyph unicode="&#xfb03;" horiz-adv-x="1263" d="M39 530v170h82v510q0 129 60.5 194.5t165 65.5t173.5 -49l-86 -151q-25 20 -57 20q-51 0 -51 -78v-512h221v508q0 129 62.5 195.5t172.5 66.5q129 0 199 -79l-115 -129q-22 28 -60 28h-3q-51 0 -51 -80v-510h426v-700h-205v530h-221v-530h-205v530h-221v-530h-205v530 h-82zM946 1022q0 53 39 91t90 38q53 0 91 -37t38 -92t-38 -92t-91 -37q-51 0 -90 38t-39 91z" />
<glyph unicode="&#xfb04;" horiz-adv-x="1263" d="M39 530v170h82v510q0 129 60.5 194.5t165 65.5t173.5 -49l-86 -151q-25 20 -57 20q-51 0 -51 -78v-512h221v463q0 145 92 226t223 81q139 0 227.5 -78.5t88.5 -230.5v-1161h-205v1163q0 133 -110.5 133t-110.5 -127v-469h131v-170h-131v-530h-205v530h-221v-530h-205v530 h-82z" />
</font>
</defs>
</svg>
